<svg id="a78e83ee-10ce-4111-802c-080a2ae785b9" data-name="Layer 1" xmlns="http://www.w3.org/2000/svg" viewBox="0 0 612.06565 159.40426"><defs><style>.b7bebc27-0d92-40d4-8c49-789f1208aeb9{fill:#00758f;}.f81b9eea-70fd-4643-8cd8-20dfdc45d4b8{fill:#606060;}.e216f55c-c7b8-47d1-a6a8-4880f1550591{fill:#f9931f;}</style></defs><path class="b7bebc27-0d92-40d4-8c49-789f1208aeb9" d="M225.48768,92.61968H200.276v17.06921H229.8647V120.2381H187.145V56.50866h42.63219V67.14424H200.276V82.33309h25.21165Z"/><path class="b7bebc27-0d92-40d4-8c49-789f1208aeb9" d="M250.08654,120.2381H237.39318V53.00705h12.69336Z"/><path class="b7bebc27-0d92-40d4-8c49-789f1208aeb9" d="M282.30142,121.1135q-10.4173,0-16.96125-6.39045-6.54365-6.39045-6.54336-17.026V96.47145a28.61489,28.61489,0,0,1,2.75753-12.75989,20.247,20.247,0,0,1,7.81269-8.6665,21.93675,21.93675,0,0,1,11.53374-3.04174q9.717,0,15.298,6.12783,5.57982,6.12783,5.58041,17.37619v5.16606H271.62149a11.74771,11.74771,0,0,0,3.69829,7.43977,11.177,11.177,0,0,0,7.81327,2.80129q7.30963,0,11.424-5.29561l6.21537,6.96a18.99714,18.99714,0,0,1-7.70356,6.28074A25.28284,25.28284,0,0,1,282.30142,121.1135ZM280.857,82.2012a7.9041,7.9041,0,0,0-6.10565,2.55034,13.20318,13.20318,0,0,0-2.99855,7.29854h17.59563v-1.012a9.41938,9.41938,0,0,0-2.27606-6.52818A8.15778,8.15778,0,0,0,280.857,82.2012Z"/><path class="b7bebc27-0d92-40d4-8c49-789f1208aeb9" d="M320.81921,72.87872l.39393,5.29562q5.03271-6.16986,13.61254-6.171,9.148,0,12.56205,7.2215,4.98981-7.22032,14.22532-7.2215,7.70357,0,11.4678,4.48674,3.76424,4.48732,3.76424,13.5034V120.2381H364.15173V90.03665q0-4.02685-1.57573-5.88739-1.57574-1.85935-5.55882-1.85936a7.89515,7.89515,0,0,0-7.87864,5.42751l.04377,32.52069H336.53272V90.07984q0-4.11266-1.6195-5.95275-1.61949-1.83835-5.51505-1.83719a8.19607,8.19607,0,0,0-7.79109,4.4634v33.4848h-12.6496V72.87872Z"/><path class="b7bebc27-0d92-40d4-8c49-789f1208aeb9" d="M408.36023,121.1135q-10.4173,0-16.96183-6.39045-6.54366-6.39045-6.54336-17.026V96.47145a28.61488,28.61488,0,0,1,2.75752-12.75989,20.247,20.247,0,0,1,7.8127-8.6665,21.93882,21.93882,0,0,1,11.53432-3.04174q9.717,0,15.2974,6.12783,5.57984,6.12783,5.58041,17.37619v5.16606H397.67971a11.7478,11.7478,0,0,0,3.69829,7.43977,11.177,11.177,0,0,0,7.81328,2.80129q7.30962,0,11.42461-5.29561l6.21537,6.96a19.001,19.001,0,0,1-7.70356,6.28074A25.28284,25.28284,0,0,1,408.36023,121.1135Zm-1.445-38.9123a7.905,7.905,0,0,0-6.10565,2.55034,13.20319,13.20319,0,0,0-2.99856,7.29854h17.59563v-1.012a9.41661,9.41661,0,0,0-2.276-6.52818A8.15693,8.15693,0,0,0,406.91523,82.2012Z"/><path class="b7bebc27-0d92-40d4-8c49-789f1208aeb9" d="M446.65859,72.87872l.39451,5.4707a16.53649,16.53649,0,0,1,13.612-6.3461q7.52847,0,11.20517,4.42021,3.6767,4.42254,3.76424,13.21977v30.5948h-12.649v-30.289q0-4.02686-1.75081-5.843-1.7508-1.8156-5.822-1.81618a8.70016,8.70016,0,0,0-8.00937,4.55211V120.2381H434.75309V72.87872Z"/><path class="b7bebc27-0d92-40d4-8c49-789f1208aeb9" d="M500.36639,61.23585V72.87872h8.09691V82.158h-8.09691v23.63592a5.644,5.644,0,0,0,1.00614,3.76424q1.00671,1.138,3.85177,1.138a20.08344,20.08344,0,0,0,3.72106-.307v9.58626a26.05066,26.05066,0,0,1-7.66037,1.138q-13.30615,0-13.56877-13.43687V82.158h-6.9157V72.87872h6.9157V61.23585Z"/><path class="b7bebc27-0d92-40d4-8c49-789f1208aeb9" d="M542.122,84.741a34.35089,34.35089,0,0,0-4.5521-.35017q-7.17831,0-9.41,4.85792V120.2381H515.50972V72.87872h11.94986l.35016,5.64578q3.808-6.52,10.5492-6.52118a13.28449,13.28449,0,0,1,3.93816.56843Z"/><path class="b7bebc27-0d92-40d4-8c49-789f1208aeb9" d="M548.11912,60.62306a6.22792,6.22792,0,0,1,1.90371-4.684,8.2098,8.2098,0,0,1,10.35195,0,6.68428,6.68428,0,0,1-.02218,9.41118,8.11406,8.11406,0,0,1-10.28658,0A6.21178,6.21178,0,0,1,548.11912,60.62306Zm13.43687,59.615H548.86263V72.87872H561.556Z"/><path class="b7bebc27-0d92-40d4-8c49-789f1208aeb9" d="M590.00547,87.01709l7.96734-14.13837h13.52442L598.016,96.07694l14.04965,24.16116h-13.5676l-8.44823-14.88187-8.40388,14.88187H568.034l14.04966-24.16116-13.438-23.19822h13.56993Z"/><path class="f81b9eea-70fd-4643-8cd8-20dfdc45d4b8" d="M198.17506,152.38142h-6.583l-1.3773,3.95683H187.145l6.41963-16.99451h2.64956l6.4313,16.99451H199.564Zm-5.75432-2.3811h4.92561l-2.46281-7.04992Z"/><path class="f81b9eea-70fd-4643-8cd8-20dfdc45d4b8" d="M258.88727,150.8057a6.13619,6.13619,0,0,1-2.00759,4.24279,6.84423,6.84423,0,0,1-4.65715,1.5232,6.62754,6.62754,0,0,1-3.57749-.96294,6.32147,6.32147,0,0,1-2.38693-2.7371,9.876,9.876,0,0,1-.87541-4.12024V147.164a9.95429,9.95429,0,0,1,.85206-4.23695,6.42025,6.42025,0,0,1,2.4453-2.82464,6.81709,6.81709,0,0,1,3.68253-.99213,6.56916,6.56916,0,0,1,4.52876,1.52321,6.36571,6.36571,0,0,1,1.99592,4.31282h-2.94136a4.196,4.196,0,0,0-1.068-2.64372,3.532,3.532,0,0,0-2.51533-.81121,3.44832,3.44832,0,0,0-2.95887,1.40765,7.03807,7.03807,0,0,0-1.05632,4.12958v1.508a7.46478,7.46478,0,0,0,.98629,4.20544,3.27433,3.27433,0,0,0,2.88884,1.4485,3.81547,3.81547,0,0,0,2.61454-.782,4.07971,4.07971,0,0,0,1.10884-2.60287Z"/><path class="f81b9eea-70fd-4643-8cd8-20dfdc45d4b8" d="M312.63185,152.38142h-6.583l-1.37731,3.95683h-3.06975l6.41963-16.99451h2.64956l6.4313,16.99451h-3.08142Zm-5.75433-2.3811h4.92561l-2.4628-7.04992Z"/><path class="f81b9eea-70fd-4643-8cd8-20dfdc45d4b8" d="M360.62151,156.33825V139.34374h5.019a7.87611,7.87611,0,0,1,3.99768,1.00379,6.84446,6.84446,0,0,1,2.70208,2.848,9.04154,9.04154,0,0,1,.95711,4.22529v.85206a9.004,9.004,0,0,1-.96295,4.24863,6.76332,6.76332,0,0,1-2.74293,2.82464,8.23182,8.23182,0,0,1-4.07938.99212Zm2.953-14.61341V153.9805h1.92589a4.43488,4.43488,0,0,0,3.56582-1.45317,6.33174,6.33174,0,0,0,1.26642-4.17277v-.94543a6.4956,6.4956,0,0,0-1.20223-4.22529,4.26336,4.26336,0,0,0-3.48994-1.459Z"/><path class="f81b9eea-70fd-4643-8cd8-20dfdc45d4b8" d="M427.76561,148.75141h-6.97989v5.22909h8.15877v2.35775h-11.1118V139.34374h11.03009v2.3811h-8.07706V146.417h6.97989Z"/><path class="f81b9eea-70fd-4643-8cd8-20dfdc45d4b8" d="M476.77075,139.34374l4.90226,13.026,4.89059-13.026h3.81676v16.99451H487.439v-5.60259l.2918-7.49346-5.019,13.096h-2.11264l-5.00731-13.08437.2918,7.48178v5.60259h-2.94136V139.34374Z"/><path class="f81b9eea-70fd-4643-8cd8-20dfdc45d4b8" d="M540.6811,147.39746l3.91014-8.05372h3.26817l-5.696,10.73829v6.25622h-2.9647V150.082l-5.70764-10.73829H536.771Z"/><path class="b7bebc27-0d92-40d4-8c49-789f1208aeb9" d="M29.31347,135.45073,0,53.22948l4.72342-.73387A117.16521,117.16521,0,0,1,22.66191,51.1198,126.50594,126.50594,0,0,1,61.39209,57.581l-2.52374,7.49629a118.29069,118.29069,0,0,0-36.20644-6.04709,109.93057,109.93057,0,0,0-11.96363.652L33.938,124.866q.573-.20973,1.13982-.40324a60.33506,60.33506,0,0,1,19.5893-3.25761c.75435,0,1.66087-.03476,2.61876-.0703a44.76244,44.76244,0,0,1,6.65427.068l-.99729,7.847a41.41887,41.41887,0,0,0-5.3642-.01c-1.05021.03862-2.04209.0757-2.91154.0757a52.36753,52.36753,0,0,0-17.02192,2.82965c-1.44611.49285-2.93046,1.08149-4.42446,1.752Z"/><path class="b7bebc27-0d92-40d4-8c49-789f1208aeb9" d="M142.20353,135.97835l-3.95131-1.87253a50.89762,50.89762,0,0,0-5.307-2.15758,51.52759,51.52759,0,0,0-9.70871-2.32366,52.18583,52.18583,0,0,0-7.314-.50908c-2.39357,0-6.9594.13519-8.9536.37853l-.96021-7.85164c2.67553-.32754,7.92811-.43723,9.91381-.43723a60.03788,60.03788,0,0,1,8.41092.58555,59.40643,59.40643,0,0,1,11.18148,2.67592q1.06429.365,2.11934.77172l23.3247-65.43262A110.227,110.227,0,0,0,147.92,59.03015a108.01479,108.01479,0,0,0-35.2273,5.85937l-2.57395-7.47929A115.903,115.903,0,0,1,147.92,51.1198a117.9,117.9,0,0,1,19.032,1.54731l4.67629.76709Z"/><path class="e216f55c-c7b8-47d1-a6a8-4880f1550591" d="M85.32534,20.63633a67.59416,67.59416,0,0,0,27.05526,25.358l-6.76089,17.99676L94.96906,92.36143l-.17883.38928a42.30282,42.30282,0,0,0-9.29156-1.198c-.2098-.00319-.4178-.00476-.62522-.00476A40.65317,40.65317,0,0,0,74.35438,92.9126L64.3641,63.94,58.19221,46.03641A67.57223,67.57223,0,0,0,85.32534,20.63633M85.32335,0V0Zm0,.00791a59.82491,59.82491,0,0,1-36.973,41.75081L56.88566,66.5181,67.25612,96.59325l2.737,6.34281a34.12712,34.12712,0,0,1,14.88046-3.47775c.16751,0,.33561.00126.50516.00381a35.3148,35.3148,0,0,1,13.63744,3.0389l3.25906-7.09432,10.75016-28.63547,9.38167-24.973A59.85885,59.85885,0,0,1,85.32335.00791Z"/><path class="e216f55c-c7b8-47d1-a6a8-4880f1550591" d="M85.2399,100.58313h-.00031l.14157.00025a46.23024,46.23024,0,0,1,20.50531,4.92991l-3.07517,14.82152-.48273,2.33151a63.58415,63.58415,0,0,0-11.34308-2.03989c-1.83691-.17386-3.771-.262-5.74914-.262-1.97966,0-3.91528.08828-5.75338.26238a63.72784,63.72784,0,0,0-11.0393,1.95678l-.45815-2.2102-3.10811-15.00226a46.24487,46.24487,0,0,1,20.36249-4.788m-.00036-7.91032A54.13356,54.13356,0,0,0,55.96807,101.34l.02373.13447,4.24786,20.50362,2.294,11.06657a55.51341,55.51341,0,0,1,17.67171-4.54053c1.66115-.15822,3.33816-.22938,5.031-.22938s3.36981.07116,5.031.22938a55.73224,55.73224,0,0,1,17.9644,4.66712l2.32565-11.2327,4.16875-20.0923v-.00789l.06328-.31641a54.11887,54.11887,0,0,0-29.38382-8.84893l-.166-.00024Z"/><circle class="b7bebc27-0d92-40d4-8c49-789f1208aeb9" cx="85.82095" cy="45.32035" r="7.06412"/><path class="b7bebc27-0d92-40d4-8c49-789f1208aeb9" d="M38.04813,148.333l.89983,1.82332,2.602-1.28407.83661,1.69523-2.602,1.28407.9761,1.97751,2.9426-1.45213.86842,1.75887-4.88583,2.41151-4.449-9.0138,4.88543-2.41151.86842,1.75887Z"/><path class="b7bebc27-0d92-40d4-8c49-789f1208aeb9" d="M49.2956,150.18488l2.65747-.99691.66406,1.76948-4.68637,1.758-3.53038-9.41191,2.02849-.76114Z"/><path class="b7bebc27-0d92-40d4-8c49-789f1208aeb9" d="M55.74573,141.5847l.5266,1.96363L59.075,142.797l.48989,1.82576-2.80269.75136.57147,2.13006,3.16939-.85007.50825,1.89429L55.749,149.96054l-2.60445-9.70968,5.26233-1.41134.50865,1.89511Z"/><path class="b7bebc27-0d92-40d4-8c49-789f1208aeb9" d="M73.09009,136.357l1.3885,9.95523-2.146.2994-.83252-5.97086-1.13764,6.24578-1.73195.24148-2.81737-5.70817.83456,5.98473-2.146.2994-1.3885-9.956,2.53511-.35324,3.4333,6.54762,1.486-7.23371Z"/><path class="b7bebc27-0d92-40d4-8c49-789f1208aeb9" d="M80.23244,138.03677l.03793,2.033,2.901-.05466.03548,1.89022-2.901.05384.0412,2.20511,3.28116-.06118.0363,1.96118-5.44711.102-.188-10.05068,5.44751-.102.03672,1.962Z"/><path class="b7bebc27-0d92-40d4-8c49-789f1208aeb9" d="M95.23178,146.84009l-2.15821-.19416-3.054-6.50031-.55516,6.17562-2.1582-.19416.90024-10.01152,2.15779.19416,3.05151,6.52805.558-6.20418,2.1578.19416Z"/><path class="b7bebc27-0d92-40d4-8c49-789f1208aeb9" d="M107.23875,138.895l-.39689,1.92121-2.3079-.47724-1.63732,7.92307-2.1219-.43809,1.63732-7.92307-2.30831-.47724.39729-1.92122Z"/><path class="b7bebc27-0d92-40d4-8c49-789f1208aeb9" d="M112.71931,150.99334l-.58493-4.18017-.494-.16071-1.17394,3.60829-2.06071-.67059,3.11065-9.55875,3.45778,1.125a3.617,3.617,0,0,1,1.57653.94959,2.67844,2.67844,0,0,1,.702,1.426,3.50673,3.50673,0,0,1-.14888,1.64547,3.26325,3.26325,0,0,1-1.02995,1.54676,2.70335,2.70335,0,0,1-1.74908.60532l.71994,4.42083Zm-.54292-5.9888,1.27714.41524a1.14221,1.14221,0,0,0,.95163-.03671,1.33657,1.33657,0,0,0,.57106-.793,1.29414,1.29414,0,0,0-.00407-.94959,1.14536,1.14536,0,0,0-.74769-.58983l-1.27713-.41524Z"/><path class="b7bebc27-0d92-40d4-8c49-789f1208aeb9" d="M124.2731,144.73532l-3.98519,9.22836-1.98933-.859,3.98519-9.22836Z"/><path class="b7bebc27-0d92-40d4-8c49-789f1208aeb9" d="M128.52506,158.17729l-.08443-3.57076-2.89324,1.91224L123.4002,155.322l4.97843-3.078-.14154-5.73427,2.20266,1.22778.08321,3.521,2.85-1.88695,2.1476,1.196L130.585,153.621l.14276,5.78322Z"/></svg>